<?xml version="1.0" encoding="UTF-8"?> <svg xmlns="http://www.w3.org/2000/svg" width="121" height="71" viewBox="0 0 121 71" fill="none"><g clip-path="url(#clip0_696_56)"><path d="M71.072 71.0004C70.3334 71.0004 69.6499 70.7275 69.1648 70.2151C68.6963 69.7139 68.4482 69.0734 68.4482 68.3493V53.7071C68.4482 51.8358 68.8892 50.0981 69.7656 48.5553C70.642 47.0014 71.8602 45.765 73.387 44.8795C74.9083 43.9939 76.6226 43.5483 78.4746 43.5483C80.3267 43.5483 82.0409 43.9995 83.5622 44.8795C85.0891 45.765 86.3072 47.0014 87.1836 48.5553C88.06 50.1036 88.501 51.8358 88.501 53.7071C88.501 55.5785 88.0711 57.2994 87.2222 58.8366C86.3678 60.3794 85.1828 61.6102 83.7055 62.5014C82.2228 63.3925 80.5416 63.8436 78.7227 63.8436C77.1628 63.8436 75.7021 63.5039 74.3902 62.8244C74.1532 62.7019 73.9217 62.5738 73.6957 62.4289V68.3493C73.6957 69.0845 73.4366 69.7361 72.9405 70.2374C72.4445 70.7386 71.794 71.0004 71.0665 71.0004H71.072ZM73.6957 54.5147C73.8666 55.7734 74.3792 56.7759 75.2611 57.5779C76.143 58.3855 77.1958 58.7754 78.4746 58.7754C79.4061 58.7754 80.2219 58.5637 80.9661 58.1237C81.7102 57.6893 82.2779 57.1045 82.7023 56.3359C83.1323 55.5562 83.3417 54.6929 83.3417 53.7015C83.3417 52.7102 83.1323 51.8469 82.7023 51.0672C82.2779 50.293 81.7047 49.7026 80.9605 49.2571C80.2164 48.8115 79.4062 48.5943 78.4801 48.5943C77.5541 48.5943 76.7494 48.8115 76.0163 49.2515C75.2776 49.6971 74.7099 50.293 74.28 51.0672C73.85 51.8469 73.6406 52.7102 73.6406 53.7015C73.6406 53.9577 73.6461 54.1137 73.6516 54.2028C73.6736 54.303 73.6902 54.4089 73.6957 54.5147Z" fill="white"></path><path d="M22.8529 63.6819C22.1253 63.6819 21.4749 63.4146 20.9788 62.9189C20.4827 62.4232 20.2236 61.766 20.2236 61.0308V46.3552C20.2236 45.62 20.4827 44.9628 20.9788 44.4671C21.4749 43.9659 22.1198 43.7041 22.8474 43.7041C23.5749 43.7041 24.2364 43.977 24.727 44.4894C25.1955 44.9851 25.4435 45.6312 25.4435 46.3552V61.0308C25.4435 61.7549 25.1955 62.4009 24.727 62.8966C24.2419 63.409 23.5915 63.6819 22.8474 63.6819H22.8529Z" fill="white"></path><path d="M56.6081 63.8376C54.734 63.8376 53.0142 63.3977 51.4929 62.5232C49.9606 61.6488 48.7424 60.418 47.877 58.8697C47.0171 57.3325 46.5762 55.5948 46.5762 53.7012C46.5762 51.8075 47.0116 50.0698 47.8715 48.5215C48.7424 46.9621 49.9606 45.7256 51.4929 44.8456C53.0142 43.9768 54.734 43.5312 56.6081 43.5312C58.4821 43.5312 60.1964 43.9712 61.7122 44.8456C63.228 45.7201 64.4462 46.9565 65.3226 48.5104C66.199 50.0587 66.6399 51.802 66.6399 53.6956C66.6399 55.5892 66.2045 57.3269 65.3391 58.8641C64.4737 60.4124 63.2556 61.6377 61.7232 62.5177C60.2019 63.3865 58.4821 63.8321 56.6081 63.8321V63.8376ZM56.6081 48.5995C55.6765 48.5995 54.8607 48.8111 54.1166 49.2511C53.3725 49.6855 52.8048 50.2703 52.3803 51.0389C51.9504 51.8187 51.7409 52.6931 51.7409 53.7067C51.7409 54.7204 51.9504 55.5614 52.3803 56.3411C52.8048 57.1097 53.3725 57.6945 54.1166 58.1289C54.8607 58.5689 55.6765 58.7805 56.6081 58.7805C57.5396 58.7805 58.3774 58.5689 59.1105 58.1345C59.8436 57.7001 60.4003 57.1153 60.8137 56.3522C61.2382 55.5669 61.4421 54.7037 61.4421 53.7067C61.4421 52.7098 61.2382 51.8131 60.8137 51.0334C60.4003 50.2648 59.8436 49.6855 59.1105 49.2511C58.3774 48.8167 57.5561 48.6051 56.6081 48.6051V48.5995Z" fill="white"></path><path d="M100.087 63.8377C98.268 63.8377 96.5923 63.3866 95.1041 62.4955C93.6213 61.6044 92.4362 60.3735 91.5874 58.8308C90.7385 57.2991 90.3086 55.5726 90.3086 53.7012C90.3086 51.8299 90.7496 50.0922 91.626 48.5495C92.5024 46.9956 93.7205 45.7591 95.2474 44.8736C96.7687 43.988 98.4829 43.5425 100.335 43.5425C102.187 43.5425 103.901 43.9936 105.423 44.8736C106.949 45.7591 108.168 46.9956 109.044 48.5495C109.92 50.0978 110.361 51.8299 110.361 53.7012V61.053C110.361 61.7715 110.102 62.4119 109.606 62.9132C109.11 63.4145 108.465 63.6762 107.738 63.6762C107.01 63.6762 106.382 63.4256 105.891 62.9522C105.676 62.7461 105.505 62.5122 105.378 62.2504C105.075 62.4565 104.756 62.6459 104.419 62.8185C103.108 63.4924 101.652 63.8377 100.092 63.8377H100.087ZM100.335 48.5996C99.4089 48.5996 98.5987 48.8168 97.8546 49.2624C97.1049 49.7079 96.5372 50.3039 96.1128 51.0724C95.6828 51.8522 95.4734 52.7154 95.4734 53.7068C95.4734 54.6982 95.6828 55.5615 96.1128 56.3412C96.5372 57.1098 97.1049 57.6946 97.849 58.129C98.5932 58.569 99.4089 58.7806 100.34 58.7806C101.272 58.7806 102.077 58.569 102.81 58.1346C103.543 57.7002 104.111 57.1098 104.535 56.3412C104.965 55.5615 105.175 54.6982 105.175 53.7068C105.175 52.7154 104.965 51.8522 104.535 51.0724C104.105 50.2983 103.543 49.7023 102.799 49.2568C102.066 48.8168 101.261 48.5996 100.34 48.5996H100.335Z" fill="white"></path><path d="M120.388 59.2764C119.936 58.7473 119.297 58.4521 118.586 58.4521H117.797C117.781 58.4465 117.72 58.3964 117.632 58.2628C117.428 57.9397 117.323 57.4719 117.323 56.8648V43.3588C117.323 42.6292 117.07 41.9887 116.59 41.4986C116.111 41.014 115.471 40.7578 114.749 40.7578C114.027 40.7578 113.437 41.0084 112.952 41.4763C112.445 41.9664 112.181 42.6125 112.181 43.3588V56.8648C112.181 58.7584 112.682 60.3513 113.669 61.61C114.716 62.9467 116.155 63.654 117.825 63.654H118.222C118.96 63.654 119.616 63.4257 120.123 62.9968C120.697 62.5123 121.011 61.8217 121.011 61.0586C121.011 60.368 120.796 59.7554 120.394 59.282L120.388 59.2764Z" fill="white"></path><path d="M16.3928 56.7257L16.3597 56.7034C15.9408 56.4249 15.4667 56.2746 14.9817 56.2746C14.4966 56.2746 13.7525 56.4361 13.047 57.1991L13.0359 57.2102C12.5509 57.7505 12.0162 58.1571 11.4485 58.4188C10.8863 58.6806 10.2689 58.8031 9.56337 58.8031C8.68695 58.8031 7.93732 58.6026 7.27587 58.1849C6.61443 57.7728 6.11284 57.2047 5.74904 56.4417C5.3632 55.6452 5.16477 54.7207 5.16477 53.6903C5.16477 52.66 5.3632 51.741 5.74904 50.939C6.11835 50.1815 6.61443 49.6079 7.27587 49.1957C7.94283 48.7836 8.69247 48.5775 9.56337 48.5775C10.2744 48.5775 10.8863 48.7056 11.4485 48.9618C12.0107 49.2236 12.5454 49.6302 13.0359 50.1704L13.047 50.1815C13.7525 50.9446 14.4911 51.1061 14.9817 51.1061C15.4723 51.1061 15.9408 50.9557 16.3597 50.6772L16.3928 50.6549C17.3739 49.9532 17.5227 49.0732 17.5227 48.6054C17.5227 48.015 17.3243 47.4692 16.9385 47.0236C15.0533 44.69 12.5729 43.5093 9.56888 43.5093C7.76644 43.5093 6.11284 43.9548 4.65766 44.8404C3.20249 45.7259 2.04496 46.9568 1.22367 48.5051C0.413402 50.0367 0 51.7744 0 53.6736C0 55.5728 0.413402 57.3105 1.22367 58.8421C2.04496 60.3904 3.19697 61.6269 4.65766 62.5068C6.11284 63.3924 7.76644 63.838 9.56888 63.838C12.5784 63.838 15.0589 62.6572 16.9385 60.3236C17.3188 59.878 17.5227 59.3322 17.5227 58.7419C17.5227 58.2796 17.3739 57.394 16.3928 56.6923V56.7257Z" fill="white"></path><path d="M44.548 56.7257L44.515 56.7034C44.0961 56.4249 43.622 56.2746 43.137 56.2746C42.6519 56.2746 41.9078 56.4361 41.2022 57.1991L41.1912 57.2102C40.7062 57.7505 40.1715 58.1571 39.6037 58.4188C39.0415 58.6806 38.4242 58.8031 37.7186 58.8031C36.8422 58.8031 36.0926 58.6026 35.4311 58.1849C34.7697 57.7728 34.2681 57.2047 33.9043 56.4417C33.5185 55.6452 33.32 54.7207 33.32 53.6903C33.32 52.66 33.5185 51.741 33.9043 50.939C34.2736 50.1815 34.7697 49.6079 35.4311 49.1957C36.0981 48.7836 36.8477 48.5775 37.7186 48.5775C38.4297 48.5775 39.0415 48.7056 39.6037 48.9618C40.166 49.2236 40.7006 49.6302 41.1912 50.1704L41.2022 50.1815C41.9078 50.9446 42.6464 51.1061 43.137 51.1061C43.6275 51.1061 44.0961 50.9557 44.515 50.6772L44.548 50.6549C45.5292 49.9532 45.678 49.0732 45.678 48.6054C45.678 48.015 45.4796 47.4692 45.0937 47.0236C43.2086 44.69 40.7282 43.5093 37.7242 43.5093C35.9217 43.5093 34.2681 43.9548 32.8129 44.8404C31.3578 45.7259 30.2002 46.9568 29.3789 48.5051C28.5687 50.0367 28.1553 51.7744 28.1553 53.6736C28.1553 55.5728 28.5687 57.3105 29.3789 58.8421C30.2002 60.3904 31.3522 61.6269 32.8129 62.5068C34.2681 63.3924 35.9217 63.838 37.7242 63.838C40.7337 63.838 43.2141 62.6572 45.0937 60.3236C45.4741 59.878 45.678 59.3322 45.678 58.7419C45.678 58.2796 45.5292 57.394 44.548 56.6923V56.7257Z" fill="white"></path><path d="M63.4435 30.3258C56.9394 30.3258 51.6699 24.9791 51.714 18.396C51.7581 11.8128 56.9835 6.61648 63.4435 6.61648C66.2878 6.61648 68.8894 7.63569 70.9234 9.33439C71.4084 9.74097 72.1195 9.70755 72.5604 9.25642L75.4818 6.30458C75.9834 5.79776 75.9503 4.97347 75.4157 4.50007C72.2077 1.68747 68.024 -0.0112305 63.4435 -0.0112305C53.3455 -0.0112305 45.1602 8.25948 45.1602 18.4628C45.1602 28.6661 53.3455 36.9368 63.4435 36.9368C68.024 36.9368 72.2077 35.2381 75.4157 32.4255C75.9503 31.9577 75.9779 31.1278 75.4818 30.621L72.5659 27.6748C72.1195 27.2236 71.4084 27.1958 70.9234 27.6024C68.8949 29.3011 66.2878 30.3203 63.4491 30.3203L63.4435 30.3258Z" fill="#ED1C27"></path><path d="M68.1292 18.4741C67.8205 18.4741 67.5614 18.7025 67.5229 19.0144C67.2638 21.0584 65.533 22.6345 63.444 22.6345C61.3549 22.6345 59.6241 21.0584 59.3651 19.0144C59.3265 18.708 59.0674 18.4741 58.7587 18.4741H54.9334C54.5806 18.4741 54.2995 18.7749 54.3271 19.1313C54.6633 23.9267 58.6154 27.7084 63.444 27.7084C68.2725 27.7084 72.2301 23.9267 72.5608 19.1313C72.5884 18.7749 72.3073 18.4741 71.9545 18.4741H68.1292Z" fill="white"></path><path d="M65.6647 16.1069C65.819 16.1069 65.9458 15.9955 65.9679 15.8395C66.0946 14.8147 66.96 14.0239 68.0073 14.0239C69.0546 14.0239 69.92 14.8147 70.0468 15.8395C70.0633 15.9899 70.1956 16.1069 70.3499 16.1069H72.2626C72.439 16.1069 72.5768 15.9565 72.5657 15.7783C72.4004 13.3834 70.4216 11.4897 68.0073 11.4897C65.593 11.4897 63.6142 13.3834 63.4489 15.7783C63.4378 15.9565 63.5756 16.1069 63.752 16.1069H65.6647Z" fill="white"></path></g><defs><clipPath id="clip0_696_56"><rect width="121" height="71" fill="white"></rect></clipPath></defs></svg> 